<svg width="24" height="16" viewBox="0 0 24 16" fill="none" xmlns="http://www.w3.org/2000/svg">
<path d="M23 6.99969H1C0.447715 6.99969 0 7.44741 0 7.9997C0 8.55199 0.447715 8.99971 1 8.99971H23C23.5523 8.99971 24 8.55199 24 7.9997C24 7.44741 23.5523 6.99969 23 6.99969Z" fill="#374957"/>
<path d="M23 0H11C10.5 0 10 0.447715 10 1C10 1.55228 10.5 2 11 2H23C23.5 2 24 1.55228 24 1C24 0.447715 23.5 0 23 0Z" fill="#374957"/>
<path d="M13 14H1C0.5 14 0 14.4477 0 15C0 15.5523 0.5 16 1 16H13C13.5 16 14 15.5523 14 15C14 14.4477 13.5 14 13 14Z" fill="#374957"/>
</svg>
